<svg xmlns="http://www.w3.org/2000/svg" width="1200" height="800" viewBox="0 0 1200 800"><defs><radialGradient id="r" cx="70%" cy="35%" r="70%"><stop stop-color="#2563eb" stop-opacity=".55"/><stop offset=".45" stop-color="#111827" stop-opacity="0"/></radialGradient><linearGradient id="g" x1="0" y1="0" x2="1" y2="1"><stop stop-color="#22d3ee"/><stop offset=".55" stop-color="#6366f1"/><stop offset="1" stop-color="#a855f7"/></linearGradient></defs><rect width="1200" height="800" fill="#07111f"/><rect width="1200" height="800" fill="url(#r)"/><g opacity=".16" stroke="#93c5fd"><path d="M0 120h1200M0 240h1200M0 360h1200M0 480h1200M0 600h1200M0 720h1200M120 0v800M240 0v800M360 0v800M480 0v800M600 0v800M720 0v800M840 0v800M960 0v800M1080 0v800"/></g><text x="88" y="142" fill="#67e8f9" font-family="Inter,Arial" font-size="32" font-weight="800" letter-spacing="8">FARCASTER MINI APP</text><text x="88" y="276" fill="#ffffff" font-family="Inter,Arial" font-size="86" font-weight="900">Neynar Score</text><text x="88" y="372" fill="#ffffff" font-family="Inter,Arial" font-size="86" font-weight="900">Check-in</text><text x="92" y="452" fill="#bfdbfe" font-family="Inter,Arial" font-size="32" font-weight="600">Check any FID's trust score on Base, then check in with an ultra-low fee.</text><rect x="88" y="548" width="380" height="82" rx="28" fill="url(#g)"/><text x="134" y="601" fill="#fff" font-family="Inter,Arial" font-size="31" font-weight="900">Open Mini App</text><circle cx="908" cy="372" r="168" fill="url(#g)" opacity=".26"/><path d="M784 393c53 71 111 107 176 107 51 0 95-22 132-64" fill="none" stroke="#67e8f9" stroke-width="38" stroke-linecap="round"/><path d="M796 309h137m-69-69v137m132-87h91" stroke="#fff" stroke-width="37" stroke-linecap="round"/><circle cx="1088" cy="392" r="37" fill="#a7f3d0"/></svg>